<svg width="754" height="383" viewBox="0 0 754 383" fill="none" xmlns="http://www.w3.org/2000/svg">
<g clip-path="url(#clip0_7_53)">
<path d="M680.13 157.999H237.754C235.876 157.999 234.075 158.873 232.746 160.428C231.418 161.983 230.672 164.092 230.672 166.292C230.672 168.491 231.418 170.601 232.746 172.156C234.075 173.711 235.876 174.585 237.754 174.585H250.285V372.979C250.285 375.178 251.031 377.288 252.359 378.843C253.687 380.398 255.489 381.272 257.367 381.272C259.246 381.272 261.047 380.398 262.375 378.843C263.703 377.288 264.45 375.178 264.45 372.979L264.557 174.585H619.609L652.345 372.979C652.345 375.178 653.092 377.288 654.42 378.843C655.748 380.398 657.549 381.272 659.428 381.272C661.306 381.272 663.108 380.398 664.436 378.843C665.764 377.288 666.51 375.178 666.51 372.979L668.571 174.585H680.13C682.009 174.585 683.81 173.711 685.138 172.156C686.466 170.601 687.213 168.491 687.213 166.292C687.213 164.092 686.466 161.983 685.138 160.428C683.81 158.873 682.009 157.999 680.13 157.999Z" fill="#CCCCCC"/>
<path d="M314.434 121.046V156.165H239.293C237.324 156.245 235.361 155.87 233.515 155.062C231.669 154.254 229.978 153.028 228.537 151.454C227.096 149.88 225.934 147.989 225.117 145.89C224.3 143.79 223.844 141.522 223.776 139.217C223.707 136.911 224.027 134.611 224.718 132.45C225.408 130.289 226.455 128.309 227.799 126.621C229.143 124.934 230.758 123.573 232.551 122.617C234.344 121.66 236.281 121.127 238.25 121.046C238.598 121.032 238.946 121.032 239.293 121.046L314.434 121.046Z" fill="#F2F2F2"/>
<path d="M316.28 155.895C316.28 156.253 316.158 156.596 315.942 156.85C315.726 157.103 315.433 157.245 315.127 157.246H237.955C233.766 157.242 229.749 155.291 226.788 151.821C223.826 148.351 222.163 143.646 222.163 138.741C222.163 133.835 223.826 129.13 226.788 125.66C229.749 122.19 233.766 120.239 237.955 120.236H315.127C315.278 120.235 315.429 120.27 315.569 120.338C315.709 120.405 315.837 120.505 315.944 120.63C316.052 120.756 316.137 120.905 316.195 121.069C316.253 121.233 316.283 121.409 316.283 121.587C316.283 121.764 316.253 121.94 316.195 122.104C316.137 122.268 316.052 122.418 315.944 122.543C315.837 122.668 315.709 122.768 315.569 122.836C315.429 122.903 315.278 122.938 315.127 122.937H237.955C234.379 122.944 230.952 124.611 228.425 127.574C225.898 130.538 224.479 134.554 224.479 138.741C224.479 142.928 225.898 146.944 228.425 149.907C230.952 152.87 234.379 154.538 237.955 154.544H315.127C315.433 154.544 315.726 154.687 315.942 154.94C316.158 155.193 316.28 155.537 316.28 155.895Z" fill="#222222"/>
<path d="M314.434 129.151H233.687C233.626 129.151 233.567 129.123 233.524 129.073C233.48 129.023 233.456 128.954 233.455 128.883C233.454 128.812 233.478 128.743 233.521 128.692C233.563 128.641 233.622 128.611 233.683 128.61H314.434C314.495 128.611 314.553 128.64 314.596 128.69C314.639 128.741 314.663 128.809 314.663 128.881C314.663 128.952 314.639 129.02 314.596 129.071C314.553 129.121 314.495 129.15 314.434 129.151Z" fill="#CCCCCC"/>
<path d="M314.434 135.634H233.687C233.626 135.635 233.567 135.607 233.524 135.556C233.48 135.506 233.456 135.438 233.455 135.366C233.454 135.295 233.478 135.226 233.521 135.175C233.563 135.124 233.622 135.095 233.683 135.094H314.434C314.495 135.095 314.553 135.123 314.596 135.174C314.639 135.225 314.663 135.293 314.663 135.364C314.663 135.435 314.639 135.503 314.596 135.554C314.553 135.605 314.495 135.633 314.434 135.634Z" fill="#CCCCCC"/>
<path d="M314.434 142.118H233.687C233.626 142.118 233.567 142.09 233.524 142.04C233.48 141.99 233.456 141.921 233.455 141.85C233.454 141.778 233.478 141.71 233.521 141.659C233.563 141.607 233.622 141.578 233.683 141.577H314.434C314.495 141.578 314.553 141.607 314.596 141.657C314.639 141.708 314.663 141.776 314.663 141.847C314.663 141.919 314.639 141.987 314.596 142.037C314.553 142.088 314.495 142.117 314.434 142.118Z" fill="#CCCCCC"/>
<path d="M314.434 148.601H233.687C233.626 148.601 233.567 148.573 233.524 148.523C233.48 148.473 233.456 148.405 233.455 148.333C233.454 148.262 233.478 148.193 233.521 148.142C233.563 148.091 233.622 148.062 233.683 148.061H314.434C314.495 148.061 314.553 148.09 314.596 148.141C314.639 148.191 314.663 148.26 314.663 148.331C314.663 148.402 314.639 148.47 314.596 148.521C314.553 148.571 314.495 148.6 314.434 148.601Z" fill="#CCCCCC"/>
<path d="M300.27 84.0469V119.165H225.129C221.152 119.327 217.282 117.633 214.372 114.454C211.462 111.276 209.749 106.874 209.611 102.217C209.473 97.56 210.92 93.0294 213.634 89.6218C216.349 86.2142 220.108 84.2089 224.085 84.0469C224.433 84.0327 224.781 84.0327 225.129 84.0469H300.27Z" fill="#F2F2F2"/>
<path d="M302.115 118.895C302.115 119.253 301.994 119.597 301.777 119.85C301.561 120.104 301.268 120.246 300.962 120.246H223.79C219.599 120.246 215.579 118.296 212.616 114.826C209.652 111.356 207.987 106.649 207.987 101.741C207.987 96.8334 209.652 92.1267 212.616 88.6564C215.579 85.1861 219.599 83.2365 223.79 83.2365H300.962C301.113 83.2365 301.263 83.2714 301.403 83.3393C301.543 83.4071 301.67 83.5066 301.778 83.632C301.885 83.7575 301.97 83.9064 302.028 84.0703C302.086 84.2341 302.115 84.4098 302.115 84.5872C302.115 84.7645 302.086 84.9402 302.028 85.104C301.97 85.2679 301.885 85.4168 301.778 85.5423C301.67 85.6677 301.543 85.7672 301.403 85.835C301.263 85.9029 301.113 85.9379 300.962 85.9379H223.79C220.211 85.9379 216.778 87.6029 214.247 90.5666C211.716 93.5303 210.294 97.5499 210.294 101.741C210.294 105.933 211.716 109.952 214.247 112.916C216.778 115.88 220.211 117.545 223.79 117.545H300.962C301.268 117.545 301.561 117.687 301.777 117.94C301.994 118.194 302.115 118.537 302.115 118.895Z" fill="#3F3D56"/>
<path d="M300.27 92.1511H219.522C219.461 92.1515 219.403 92.1236 219.359 92.0734C219.316 92.0232 219.291 91.955 219.29 91.8835C219.29 91.812 219.313 91.7432 219.356 91.6921C219.399 91.641 219.457 91.6118 219.518 91.6109H300.27C300.33 91.6116 300.389 91.6403 300.431 91.6909C300.474 91.7415 300.498 91.8098 300.498 91.881C300.498 91.9522 300.474 92.0205 300.431 92.0711C300.389 92.1217 300.33 92.1504 300.27 92.1511Z" fill="#CCCCCC"/>
<path d="M300.27 98.6346H219.522C219.461 98.635 219.403 98.607 219.359 98.5569C219.316 98.5067 219.291 98.4384 219.29 98.3669C219.29 98.2955 219.313 98.2267 219.356 98.1756C219.399 98.1245 219.457 98.0952 219.518 98.0943H300.27C300.33 98.095 300.389 98.1238 300.431 98.1744C300.474 98.225 300.498 98.2933 300.498 98.3644C300.498 98.4356 300.474 98.5039 300.431 98.5545C300.389 98.6051 300.33 98.6339 300.27 98.6346Z" fill="#CCCCCC"/>
<path d="M300.27 105.118H219.522C219.461 105.118 219.403 105.09 219.359 105.04C219.316 104.99 219.291 104.922 219.29 104.85C219.29 104.779 219.313 104.71 219.356 104.659C219.399 104.608 219.457 104.579 219.518 104.578H300.27C300.33 104.578 300.389 104.607 300.431 104.658C300.474 104.708 300.498 104.777 300.498 104.848C300.498 104.919 300.474 104.987 300.431 105.038C300.389 105.089 300.33 105.117 300.27 105.118Z" fill="#CCCCCC"/>
<path d="M300.27 111.601H219.522C219.461 111.602 219.403 111.574 219.359 111.524C219.316 111.473 219.291 111.405 219.29 111.334C219.29 111.262 219.313 111.193 219.356 111.142C219.399 111.091 219.457 111.062 219.518 111.061H300.27C300.33 111.062 300.389 111.091 300.431 111.141C300.474 111.192 300.498 111.26 300.498 111.331C300.498 111.402 300.474 111.471 300.431 111.521C300.389 111.572 300.33 111.601 300.27 111.601Z" fill="#CCCCCC"/>
<path d="M387.681 282.268V251.648C387.681 250.295 387.222 248.997 386.405 248.04C385.588 247.082 384.479 246.545 383.323 246.545H284.17C283.014 246.545 281.905 247.082 281.088 248.04C280.271 248.997 279.812 250.295 279.812 251.648V282.268H387.681Z" fill="#CCCCCC"/>
<path d="M387.681 293.751H279.811V333.302H387.681V293.751Z" fill="#CCCCCC"/>
<path d="M279.812 344.785V375.405C279.812 376.759 280.271 378.057 281.088 379.014C281.905 379.971 283.014 380.509 284.17 380.509H383.323C384.479 380.509 385.588 379.971 386.405 379.014C387.222 378.057 387.681 376.759 387.681 375.405V344.785H279.812Z" fill="#CCCCCC"/>
<path d="M333.202 269.51C335.007 269.51 336.47 267.796 336.47 265.682C336.47 263.569 335.007 261.855 333.202 261.855C331.396 261.855 329.933 263.569 329.933 265.682C329.933 267.796 331.396 269.51 333.202 269.51Z" fill="white"/>
<path d="M333.202 320.544C335.007 320.544 336.47 318.83 336.47 316.716C336.47 314.602 335.007 312.889 333.202 312.889C331.396 312.889 329.933 314.602 329.933 316.716C329.933 318.83 331.396 320.544 333.202 320.544Z" fill="white"/>
<path d="M333.377 370.497C335.182 370.497 336.646 368.783 336.646 366.67C336.646 364.556 335.182 362.842 333.377 362.842C331.572 362.842 330.108 364.556 330.108 366.67C330.108 368.783 331.572 370.497 333.377 370.497Z" fill="white"/>
<path d="M375.452 211.632V246.75H300.311C296.335 246.909 292.469 245.213 289.561 242.035C286.653 238.857 284.942 234.457 284.803 229.802C284.665 225.147 286.111 220.618 288.823 217.211C291.535 213.804 295.291 211.797 299.266 211.632C299.614 211.617 299.963 211.617 300.311 211.632H375.452Z" fill="#F2F2F2"/>
<path d="M377.297 246.48C377.297 246.838 377.176 247.182 376.959 247.435C376.743 247.688 376.45 247.83 376.144 247.831H298.972C294.782 247.832 290.763 245.884 287.799 242.416C284.834 238.948 283.168 234.244 283.165 229.337C283.163 224.43 284.824 219.723 287.785 216.251C290.746 212.779 294.763 210.826 298.953 210.821H376.144C376.296 210.821 376.446 210.855 376.586 210.923C376.727 210.99 376.854 211.09 376.962 211.215C377.069 211.341 377.154 211.49 377.212 211.654C377.271 211.818 377.301 211.994 377.301 212.172C377.301 212.349 377.271 212.525 377.212 212.689C377.154 212.854 377.069 213.003 376.962 213.128C376.854 213.254 376.727 213.353 376.586 213.421C376.446 213.488 376.296 213.523 376.144 213.522H298.972C295.396 213.528 291.968 215.195 289.441 218.158C286.913 221.122 285.494 225.138 285.494 229.326C285.494 233.514 286.913 237.53 289.441 240.493C291.968 243.456 295.396 245.124 298.972 245.129H376.144C376.45 245.129 376.743 245.272 376.959 245.525C377.176 245.778 377.297 246.122 377.297 246.48Z" fill="#3F3D56"/>
<path d="M375.452 219.736H294.704C294.643 219.736 294.585 219.708 294.541 219.658C294.498 219.608 294.473 219.54 294.472 219.468C294.472 219.397 294.496 219.328 294.538 219.277C294.581 219.226 294.639 219.196 294.7 219.195H375.452C375.513 219.196 375.571 219.225 375.613 219.276C375.656 219.326 375.68 219.394 375.68 219.466C375.68 219.537 375.656 219.605 375.613 219.656C375.571 219.706 375.513 219.735 375.452 219.736Z" fill="#CCCCCC"/>
<path d="M375.452 226.219H294.704C294.643 226.22 294.585 226.192 294.541 226.142C294.498 226.091 294.473 226.023 294.472 225.952C294.472 225.88 294.496 225.811 294.538 225.76C294.581 225.709 294.639 225.68 294.7 225.679H375.452C375.513 225.68 375.571 225.708 375.613 225.759C375.656 225.81 375.68 225.878 375.68 225.949C375.68 226.02 375.656 226.089 375.613 226.139C375.571 226.19 375.513 226.219 375.452 226.219Z" fill="#CCCCCC"/>
<path d="M375.452 232.703H294.704C294.643 232.703 294.585 232.675 294.541 232.625C294.498 232.575 294.473 232.506 294.472 232.435C294.472 232.364 294.496 232.295 294.538 232.244C294.581 232.193 294.639 232.163 294.7 232.162H375.452C375.513 232.163 375.571 232.192 375.613 232.242C375.656 232.293 375.68 232.361 375.68 232.433C375.68 232.504 375.656 232.572 375.613 232.623C375.571 232.673 375.513 232.702 375.452 232.703Z" fill="#CCCCCC"/>
<path d="M375.452 239.186H294.704C294.643 239.186 294.585 239.158 294.541 239.108C294.498 239.058 294.473 238.99 294.472 238.918C294.472 238.847 294.496 238.778 294.538 238.727C294.581 238.676 294.639 238.647 294.7 238.646H375.452C375.513 238.646 375.571 238.675 375.613 238.726C375.656 238.776 375.68 238.845 375.68 238.916C375.68 238.987 375.656 239.055 375.613 239.106C375.571 239.157 375.513 239.185 375.452 239.186Z" fill="#CCCCCC"/>
<path d="M287.203 72.3314H252.968C252.643 72.3311 252.322 72.4184 252.031 72.5866L243.39 77.6516C243.106 77.7932 242.863 78.0295 242.693 78.3312C242.522 78.633 242.431 78.9867 242.431 79.3485C242.431 79.7103 242.522 80.0641 242.693 80.3658C242.863 80.6675 243.106 80.9038 243.39 81.0454L252.031 86.1104C252.322 86.2786 252.643 86.366 252.968 86.3656H287.203C287.674 86.3976 288.138 86.2106 288.493 85.8453C288.848 85.4799 289.065 84.9655 289.099 84.4136V74.2834C289.065 73.7314 288.848 73.2171 288.493 72.8517C288.138 72.4864 287.674 72.2994 287.203 72.3314Z" fill="#3F3D56"/>
<path d="M289.099 74.2835V84.4136C289.065 84.9656 288.848 85.48 288.493 85.8453C288.138 86.2107 287.674 86.3977 287.203 86.3657H280.382V72.3314H287.203C287.674 72.2994 288.138 72.4864 288.493 72.8518C288.848 73.2171 289.065 73.7315 289.099 74.2835Z" fill="#222222"/>
<path d="M81.9532 270.828C86.3614 272.642 91.0945 273.097 95.6963 272.148C100.298 271.199 104.614 268.878 108.227 265.409C117.43 256.364 120.315 241.464 122.662 227.667C124.977 214.064 127.292 200.462 129.606 186.859L115.069 198.58C104.614 207.009 93.9238 215.708 86.6851 227.918C79.4464 240.127 76.2866 256.794 82.1027 270.005" fill="white"/>
<path d="M83.1959 320.235C81.7245 307.685 80.2115 294.974 81.2436 282.29C82.1602 271.025 85.0953 260.022 91.0708 251C94.2426 246.221 98.102 242.126 102.476 238.899C103.616 238.056 104.666 240.173 103.53 241.012C95.9627 246.612 90.1094 254.882 86.8144 264.628C83.1752 275.467 82.5907 287.282 83.2179 298.796C83.5971 305.759 84.4009 312.676 85.2109 319.585C85.2747 319.897 85.2349 320.226 85.0994 320.506C84.964 320.785 84.743 320.994 84.4811 321.09C84.214 321.174 83.9292 321.131 83.6886 320.971C83.448 320.812 83.271 320.547 83.1959 320.235Z" fill="#F2F2F2"/>
<path d="M100 298.392C101.891 301.756 104.489 304.494 107.546 306.341C110.603 308.189 114.014 309.083 117.451 308.938C126.285 308.447 133.65 301.228 140.28 294.373L159.89 274.1L146.911 273.373C137.578 272.85 128.004 272.362 119.115 275.732C110.225 279.102 102.027 287.213 100.401 297.987" fill="white"/>
<path d="M79.0376 327.449C86.1197 312.776 94.3343 296.468 109.012 291.256C113.094 289.812 117.373 289.294 121.62 289.732C122.959 289.867 122.625 292.283 121.288 292.148C114.169 291.456 107.064 293.657 101.168 298.381C95.4951 302.903 91.078 309.189 87.3393 315.855C85.0493 319.939 82.998 324.195 80.9464 328.446C80.2907 329.804 78.3742 328.824 79.0376 327.449Z" fill="#F2F2F2"/>
<path d="M67.69 342.894C67.9286 339.657 68.9214 336.558 70.5601 333.935C72.1987 331.313 74.4206 329.267 76.9836 328.021V319.538H89.1344V328.288C91.5713 329.595 93.6685 331.636 95.2122 334.202C96.756 336.768 97.691 339.767 97.922 342.894L100.779 381.785H64.8328L67.69 342.894Z" fill="#F2F2F2"/>
<path d="M480.918 157.202L477.303 155.419L474.824 134.202H441.803L439.115 155.333L435.881 157.226C435.726 157.317 435.602 157.466 435.529 157.649C435.456 157.833 435.437 158.04 435.477 158.237C435.517 158.434 435.612 158.61 435.748 158.735C435.884 158.861 436.052 158.929 436.225 158.929H480.62C480.797 158.929 480.969 158.858 481.106 158.726C481.244 158.595 481.338 158.412 481.373 158.208C481.408 158.005 481.382 157.793 481.299 157.61C481.216 157.426 481.081 157.282 480.918 157.202Z" fill="#E6E6E6"/>
<path d="M539.599 137.025H377.39C376.539 137.022 375.724 136.625 375.123 135.919C374.521 135.214 374.184 134.258 374.184 133.262V106.478H542.805V133.262C542.805 134.258 542.467 135.214 541.866 135.919C541.265 136.625 540.45 137.022 539.599 137.025Z" fill="#CCCCCC"/>
<path d="M542.975 119.137H374.036V4.53617C374.037 3.3335 374.446 2.1805 375.172 1.3301C375.898 0.479696 376.883 0.00134571 377.91 0H539.1C540.128 0.00134569 541.112 0.479697 541.839 1.3301C542.565 2.18049 542.973 3.3335 542.975 4.53617L542.975 119.137Z" fill="#3F3D56"/>
<path d="M532.884 110.819H384.126C383.334 110.818 382.575 110.449 382.015 109.794C381.455 109.138 381.14 108.249 381.139 107.322V11.8148C381.14 10.8876 381.455 9.99866 382.015 9.34301C382.575 8.68737 383.334 8.31857 384.126 8.3175H532.884C533.676 8.31857 534.436 8.68737 534.995 9.34301C535.555 9.99866 535.87 10.8876 535.871 11.8148V107.322C535.87 108.249 535.555 109.138 534.995 109.794C534.435 110.449 533.676 110.818 532.884 110.819Z" fill="white"/>
<path d="M493.704 144.519C494.664 143.48 495.807 142.7 497.053 142.235C498.299 141.769 499.616 141.629 500.913 141.825C502.21 142.02 503.454 142.546 504.558 143.365C505.663 144.185 506.6 145.278 507.305 146.567L527.426 142.378L532.583 156.075L504.096 161.524C502.168 162.766 499.917 163.137 497.77 162.566C495.624 161.995 493.731 160.522 492.45 158.426C491.169 156.33 490.589 153.757 490.82 151.193C491.051 148.63 492.077 146.255 493.704 144.519Z" fill="#FFB6B6"/>
<path d="M512.333 162.008L533.31 161.701L535.965 161.659L578.644 161.03C578.644 161.03 590.233 148.083 600.325 134.753L598.911 122.774C597.531 111.017 592.55 100.247 584.895 92.4694C570.441 103.778 562.059 126.163 562.059 126.163L535.597 133.574L532.95 134.315L516.508 138.916L512.333 162.008Z" fill="white"/>
<path d="M619.716 235.64H580.56C580.56 237.605 537.757 239.199 537.757 239.199C536.813 240.032 535.953 240.987 535.192 242.046C532.907 245.237 531.658 249.271 531.666 253.435V256.282C531.668 261.001 533.269 265.526 536.119 268.863C538.968 272.2 542.833 274.075 546.863 274.077H619.716C623.746 274.073 627.609 272.197 630.458 268.86C633.308 265.524 634.91 261 634.913 256.282V253.435C634.908 248.717 633.305 244.195 630.456 240.859C627.607 237.524 623.745 235.647 619.716 235.64Z" fill="#E4E4E4"/>
<path d="M591.242 273.37H575.437V380.191H591.242V273.37Z" fill="#E4E4E4"/>
<path d="M530.454 379.541C530.454 381.54 554.404 380.314 583.948 380.314C613.491 380.314 637.441 381.541 637.441 379.541C637.441 377.541 613.491 361.684 583.948 361.684C554.404 361.684 530.454 377.541 530.454 379.541Z" fill="#E4E4E4"/>
<path d="M519.837 367.335L508.074 367.335L502.478 314.209L519.838 314.21L519.837 367.335Z" fill="#FFB6B6"/>
<path d="M522.837 380.686L484.909 380.685V380.123C484.909 375.539 486.464 371.142 489.233 367.9C492.001 364.659 495.756 362.837 499.671 362.837H499.672L522.837 362.838L522.837 380.686Z" fill="#2F2E41"/>
<path d="M485.071 367.335L473.309 367.335L467.713 314.209L485.073 314.21L485.071 367.335Z" fill="#FFB6B6"/>
<path d="M488.071 380.686L450.143 380.685V380.123C450.143 375.539 451.699 371.142 454.467 367.9C457.236 364.659 460.99 362.837 464.906 362.837H464.907L488.072 362.838L488.071 380.686Z" fill="#2F2E41"/>
<path d="M590.439 61.484C601.734 61.484 610.891 50.7621 610.891 37.5359C610.891 24.3098 601.734 13.5879 590.439 13.5879C579.143 13.5879 569.987 24.3098 569.987 37.5359C569.987 50.7621 579.143 61.484 590.439 61.484Z" fill="#FFB6B6"/>
<path d="M623.54 201.619C623.54 201.619 630.402 244.108 604.292 249.519C578.183 254.93 540.492 258.733 540.492 258.733L523.567 351.199L500.828 348.822C500.828 348.822 503.852 237.513 511.289 228.805C518.726 220.096 565.731 194.021 565.731 194.021L623.54 201.619Z" fill="#2F2E41"/>
<path d="M572.546 183.811L561.126 197.225C561.126 197.225 478.673 212.776 475.492 235.076C470.69 268.743 465.017 341.953 465.017 341.953L489.808 339.776L499.529 256.555L539.194 245.991L584.321 217.193L572.546 183.811Z" fill="#2F2E41"/>
<path d="M610.119 23.2408C608.101 18.7805 605.535 9.89114 601.46 8.24251C599.197 7.36388 596.858 6.78045 594.486 6.50282L587.56 9.62217L591.329 6.18917C590.596 6.13797 589.862 6.09611 589.129 6.0636L584.456 8.16824L586.846 5.99078C582.49 5.93842 577.992 6.46887 574.617 9.57452C571.739 12.2221 568.887 22.2516 568.426 26.5029C567.933 30.5699 568.106 34.7095 568.934 38.701L570.118 40.0187C570.532 38.9072 570.843 37.747 571.046 36.5579C571.471 34.3362 572.286 32.2423 573.439 30.4097C574.593 28.5772 576.06 27.0461 577.747 25.9142L577.811 25.8716C579.796 24.5635 582.205 24.6238 584.481 24.7197L595.292 25.1753C597.893 25.2849 600.694 25.4776 602.721 27.388C604.01 28.7973 605.023 30.5162 605.692 32.4269C606.7 34.8081 608.668 43.7898 608.668 43.7898C608.668 43.7898 609.783 42.0944 610.316 43.3563C611.173 40.064 611.693 36.6646 611.867 33.229C612.038 29.7782 611.435 26.3351 610.119 23.2408Z" fill="#2F2E41"/>
<path d="M681.652 48.0528C680.347 48.1534 679.077 48.5877 677.931 49.3252C676.786 50.0626 675.792 51.0853 675.02 52.3211C674.248 53.5569 673.717 54.9758 673.465 56.4778C673.212 57.9799 673.244 59.5286 673.557 61.0148L657.111 75.2203L662.046 89.0287L685.031 68.5858C687.128 67.8032 688.907 66.147 690.031 63.9309C691.155 61.7148 691.546 59.0929 691.13 56.5619C690.713 54.031 689.518 51.7668 687.771 50.1985C686.025 48.6303 683.847 47.8668 681.652 48.0528Z" fill="#FFB6B6"/>
<path d="M679.005 77.0534L637.775 130.671C637.775 130.671 618.058 123.28 602.809 115.267L595.959 90.6307C594.368 84.9153 593.689 78.9058 593.956 72.9027C615.095 66.3162 639.682 90.8238 639.682 90.8238L670.545 62.517L679.005 77.0534Z" fill="white"/>
<path d="M582.799 205.579C575.444 202.604 567.838 199.527 559.633 198.372L559.281 198.322L559.378 197.923C567.871 163.006 565.751 140.67 561.589 107.119C560.704 99.8819 561.842 92.5037 564.832 86.0857C567.822 79.6676 572.504 74.5539 578.18 71.5077L578.23 71.481L601.662 69.7375L601.715 69.7337L618.757 75.6026C621.209 76.4531 623.354 78.2213 624.865 80.6363C626.377 83.0512 627.17 85.9798 627.124 88.9731C626.939 100.007 627.331 112.326 627.745 125.369C628.675 154.628 629.637 184.884 624.18 204.515L624.152 204.618L624.079 204.685C619.062 209.469 612.778 212.053 606.308 211.994C598.659 211.994 590.853 208.837 582.799 205.579Z" fill="white"/>
<path d="M752.91 383H1.0896C0.800619 383 0.523479 382.866 0.31914 382.626C0.114802 382.387 0 382.063 0 381.724C0 381.386 0.114802 381.061 0.31914 380.822C0.523479 380.583 0.800619 380.448 1.0896 380.448H752.91C753.199 380.448 753.477 380.583 753.681 380.822C753.885 381.061 754 381.386 754 381.724C754 382.063 753.885 382.387 753.681 382.626C753.477 382.866 753.199 383 752.91 383Z" fill="#CCCCCC"/>
</g>
<defs>
<clipPath id="clip0_7_53">
<rect width="754" height="383" fill="white"/>
</clipPath>
</defs>
</svg>
