<svg width="333" height="274" viewBox="0 0 333 274" fill="none" xmlns="http://www.w3.org/2000/svg">
<g clip-path="url(#clip0_30_309)">
<path d="M265.842 49.9098C264.112 69.2458 259.184 89.6346 251.455 109.307C241.898 133.635 228.839 155.062 213.692 171.274L212.851 170.53C227.925 154.397 240.924 133.064 250.442 108.837C259.044 86.9432 264.16 64.1597 265.245 42.9594L266.319 43.1418C266.205 45.3809 266.046 47.6368 265.842 49.9098Z" fill="black"/>
<path d="M272.732 162.21C251.456 196.549 225.644 221.085 200.05 231.296L199.532 230.333C224.949 220.192 250.61 195.782 271.789 161.6L272.732 162.21Z" fill="black"/>
<path d="M265.326 73.9839C263.596 93.32 258.668 113.709 250.939 133.381C241.381 157.709 228.323 179.137 213.175 195.348L212.335 194.604C227.409 178.471 240.408 157.138 249.926 132.911C258.528 111.017 263.644 88.2339 264.728 67.0336L265.802 67.216C265.688 69.455 265.53 71.711 265.326 73.9839Z" fill="black"/>
<path d="M26.4785 123.625H12.519C12.2208 123.626 11.9263 123.558 11.6576 123.427C11.3889 123.296 11.153 123.104 10.9676 122.867C10.7844 122.636 10.6552 122.366 10.5896 122.077C10.524 121.789 10.5238 121.488 10.5889 121.199C11.9184 115.248 11.8348 109.061 10.3452 103.149C10.251 102.76 10.2737 102.351 10.4106 101.975C10.5475 101.599 10.7921 101.273 11.1131 101.039C18.2911 95.8017 23.944 95.9537 27.9149 101.492C28.0939 101.744 28.2128 102.035 28.2623 102.342C29.3233 108.813 29.382 115.412 28.4363 121.901C28.3706 122.38 28.136 122.819 27.7761 123.136C27.4161 123.453 26.9551 123.627 26.4785 123.625Z" fill="#E6E6E6"/>
<path d="M22.1507 109.443H17.3486C17.0831 109.443 16.8284 109.336 16.6407 109.146C16.4529 108.955 16.3474 108.697 16.3474 108.428C16.3474 108.158 16.4529 107.9 16.6407 107.709C16.8284 107.519 17.0831 107.412 17.3486 107.412H22.1507C22.4159 107.413 22.67 107.52 22.8573 107.71C23.0447 107.901 23.1499 108.159 23.1499 108.428C23.1499 108.697 23.0447 108.955 22.8573 109.145C22.67 109.336 22.4159 109.443 22.1507 109.443Z" fill="white"/>
<path d="M22.1507 113.006H17.3486C17.0831 113.006 16.8284 112.899 16.6407 112.708C16.4529 112.518 16.3474 112.259 16.3474 111.99C16.3474 111.721 16.4529 111.462 16.6407 111.272C16.8284 111.081 17.0831 110.974 17.3486 110.974H22.1507C22.4159 110.975 22.67 111.082 22.8573 111.273C23.0447 111.463 23.1499 111.721 23.1499 111.99C23.1499 112.259 23.0447 112.517 22.8573 112.708C22.67 112.898 22.4159 113.005 22.1507 113.006Z" fill="white"/>
<path d="M22.1507 116.568H17.3486C17.0831 116.568 16.8284 116.461 16.6407 116.271C16.4529 116.08 16.3474 115.822 16.3474 115.552C16.3474 115.283 16.4529 115.025 16.6407 114.834C16.8284 114.644 17.0831 114.537 17.3486 114.537H22.1507C22.4159 114.537 22.67 114.644 22.8573 114.835C23.0447 115.025 23.1499 115.283 23.1499 115.552C23.1499 115.821 23.0447 116.079 22.8573 116.27C22.67 116.46 22.4159 116.568 22.1507 116.568Z" fill="white"/>
<path d="M280.178 186.857H266.218C265.92 186.858 265.625 186.79 265.357 186.658C265.088 186.527 264.852 186.336 264.667 186.099C264.484 185.868 264.354 185.598 264.289 185.309C264.223 185.02 264.223 184.72 264.288 184.431C265.618 178.479 265.534 172.293 264.044 166.38C263.95 165.991 263.973 165.582 264.11 165.206C264.247 164.83 264.491 164.504 264.812 164.271C271.99 159.033 277.643 159.185 281.614 164.723C281.793 164.975 281.912 165.267 281.962 165.573C283.023 172.044 283.081 178.644 282.136 185.133C282.07 185.612 281.835 186.05 281.475 186.367C281.115 186.684 280.654 186.858 280.178 186.857Z" fill="#E6E6E6"/>
<path d="M275.85 172.675H271.048C270.783 172.674 270.529 172.567 270.341 172.377C270.154 172.186 270.049 171.928 270.049 171.659C270.049 171.39 270.154 171.132 270.341 170.942C270.529 170.751 270.783 170.644 271.048 170.643H275.85C276.115 170.643 276.37 170.75 276.558 170.941C276.746 171.131 276.851 171.39 276.851 171.659C276.851 171.929 276.746 172.187 276.558 172.377C276.37 172.568 276.115 172.675 275.85 172.675Z" fill="white"/>
<path d="M275.85 176.237H271.048C270.783 176.237 270.529 176.129 270.341 175.939C270.154 175.749 270.049 175.491 270.049 175.222C270.049 174.953 270.154 174.694 270.341 174.504C270.529 174.314 270.783 174.206 271.048 174.206H275.85C276.115 174.206 276.37 174.313 276.558 174.503C276.746 174.694 276.851 174.952 276.851 175.222C276.851 175.491 276.746 175.749 276.558 175.94C276.37 176.13 276.115 176.237 275.85 176.237Z" fill="white"/>
<path d="M275.85 179.8H271.048C270.783 179.799 270.529 179.692 270.341 179.501C270.154 179.311 270.049 179.053 270.049 178.784C270.049 178.515 270.154 178.257 270.341 178.066C270.529 177.876 270.783 177.769 271.048 177.768H275.85C276.115 177.768 276.37 177.875 276.558 178.066C276.746 178.256 276.851 178.514 276.851 178.784C276.851 179.053 276.746 179.312 276.558 179.502C276.37 179.693 276.115 179.8 275.85 179.8Z" fill="white"/>
<path d="M333 273.47C333 273.54 332.987 273.609 332.961 273.673C332.934 273.738 332.896 273.796 332.847 273.845C332.799 273.895 332.741 273.934 332.678 273.96C332.614 273.987 332.546 274 332.478 274H0.522323C0.383795 274 0.250945 273.944 0.152991 273.845C0.0550362 273.745 0 273.611 0 273.47C0 273.33 0.0550362 273.195 0.152991 273.095C0.250945 272.996 0.383795 272.94 0.522323 272.94H332.478C332.546 272.94 332.614 272.954 332.678 272.98C332.741 273.007 332.799 273.046 332.847 273.095C332.896 273.144 332.934 273.203 332.961 273.267C332.987 273.331 333 273.4 333 273.47Z" fill="#CCCCCC"/>
<path d="M87.5673 241.026L86.6967 228.741C80.9935 225.849 74.6806 224.413 68.3062 224.557C77.2741 231.59 76.5558 245.645 82.7666 255.264C84.7264 258.249 87.3231 260.749 90.3645 262.577C93.4058 264.406 96.8138 265.517 100.336 265.827L107.799 270.183C108.653 264.459 108.273 258.614 106.686 253.053C105.099 247.491 102.343 242.345 98.6064 237.968C96.4863 235.534 94.0726 233.381 91.4221 231.558C89.7907 236.31 87.5673 241.026 87.5673 241.026Z" fill="#F2F2F2"/>
<path d="M245.433 242.807L246.303 230.522C252.007 227.63 258.319 226.194 264.694 226.338C255.726 233.371 256.444 247.426 250.233 257.045C248.274 260.031 245.677 262.53 242.636 264.359C239.594 266.187 236.186 267.298 232.664 267.609L225.201 271.965C224.347 266.24 224.727 260.395 226.314 254.834C227.901 249.272 230.657 244.126 234.394 239.75C236.514 237.315 238.927 235.162 241.578 233.339C243.209 238.091 245.433 242.807 245.433 242.807Z" fill="#F2F2F2"/>
<path d="M162.55 104.173C167.156 104.173 170.889 100.385 170.889 95.7121C170.889 91.0395 167.156 87.2516 162.55 87.2516C157.944 87.2516 154.21 91.0395 154.21 95.7121C154.21 100.385 157.944 104.173 162.55 104.173Z" fill="black"/>
<path d="M166.831 92.1861C166.705 92.0647 166.538 91.9969 166.365 91.9969C166.192 91.9969 166.025 92.0647 165.9 92.1861C164.13 93.6178 162.541 95.2648 161.167 97.09C160.83 96.4281 160.493 95.7662 160.156 95.1043C159.766 94.3403 158.63 95.0152 159.019 95.7786C159.512 96.7467 160.005 97.7148 160.498 98.6829C160.558 98.7818 160.641 98.8634 160.741 98.9201C160.84 98.9767 160.952 99.0065 161.067 99.0065C161.181 99.0065 161.293 98.9767 161.393 98.9201C161.492 98.8634 161.576 98.7818 161.635 98.6829C163.099 96.5917 164.848 94.7222 166.831 93.1307C166.953 93.0049 167.022 92.8352 167.022 92.6584C167.022 92.4815 166.953 92.3118 166.831 92.1861Z" fill="white"/>
<path d="M125.234 119.703L112.658 99.667L127.221 91.7549L131.043 107.042L157.974 121.805C159.037 121.417 160.188 121.351 161.288 121.615C162.387 121.88 163.387 122.463 164.166 123.294C164.944 124.125 165.468 125.167 165.672 126.295C165.877 127.422 165.753 128.586 165.317 129.643C164.881 130.701 164.151 131.607 163.216 132.251C162.281 132.895 161.182 133.249 160.052 133.27C158.923 133.291 157.811 132.978 156.854 132.369C155.896 131.761 155.134 130.883 154.66 129.842L125.234 119.703Z" fill="#A0616A"/>
<path d="M103.47 75.6355C99.5189 81.5212 113.561 102.915 113.561 102.915C114.245 101.419 120.785 118.218 121.88 117.226C124.993 114.406 129.866 106.549 132.574 106.199C134.123 105.999 128.982 94.8538 128.982 94.8538C128.982 94.8538 126.632 88.2727 123.443 79.8659C122.585 77.4722 121.144 75.3376 119.254 73.6609C117.364 71.9842 115.087 70.8199 112.634 70.2763C112.634 70.2763 107.422 69.7498 103.47 75.6355Z" fill="#3F3D56"/>
<path d="M103.663 267.394L109.636 267.393L112.477 244.022L103.662 244.023L103.663 267.394Z" fill="#A0616A"/>
<path d="M102.14 265.416L103.821 265.416L110.384 262.708L113.902 265.415H113.902C115.89 265.415 117.797 266.216 119.202 267.642C120.608 269.069 121.398 271.003 121.398 273.019V273.267L102.14 273.267L102.14 265.416Z" fill="#2F2E41"/>
<path d="M131.411 267.394L137.383 267.393L140.225 244.022L131.41 244.023L131.411 267.394Z" fill="#A0616A"/>
<path d="M129.887 265.416L131.568 265.416L138.131 262.708L141.649 265.415H141.65C143.638 265.415 145.544 266.216 146.95 267.642C148.355 269.069 149.145 271.003 149.145 273.019V273.267L129.887 273.267L129.887 265.416Z" fill="#2F2E41"/>
<path d="M133.996 139.622L95.1477 140.607C87.7696 144.673 87.6576 153.472 90.075 163.919C90.075 163.919 89.2589 170.129 90.8911 171.785C92.5233 173.441 93.3394 173.441 92.5233 176.339C91.7072 179.236 96.0191 183.969 95.4954 184.501C94.9716 185.032 93.7475 187.93 93.7475 187.93L97.828 211.526C97.828 211.526 100.684 252.509 101.5 253.337C102.317 254.165 103.133 253.337 102.317 255.407C101.5 257.476 100.684 256.648 101.5 257.476C102.223 258.267 102.904 259.096 103.541 259.96H113.406C113.406 259.96 114.15 255.82 114.15 255.407C114.15 254.993 114.966 252.509 114.966 252.095C114.966 251.681 114.245 250.949 114.245 250.949C113.996 250.108 113.827 249.243 113.742 248.369C113.742 247.541 111.294 215.666 111.294 215.666L116.19 174.269L128.024 214.838C128.024 214.838 128.024 250.439 128.84 251.267C129.656 252.095 129.656 251.681 129.248 253.337C128.84 254.993 127.208 254.579 128.432 255.821C129.656 257.062 130.064 254.993 129.656 257.062L129.248 259.132L141.489 259.31C141.489 259.31 143.122 255.821 142.305 254.579C141.489 253.337 141.538 253.676 142.534 251.643C143.53 249.611 143.938 249.197 143.53 248.783C143.122 248.369 143.122 246.167 143.122 246.167L141.081 206.558C141.081 206.558 140.673 164.747 140.673 163.506C140.642 162.867 140.759 162.229 141.012 161.643V159.957L139.449 153.984L133.996 139.622Z" fill="#2F2E41"/>
<path d="M110.659 57.672C117.325 57.672 122.73 52.1895 122.73 45.4266C122.73 38.6636 117.325 33.1812 110.659 33.1812C103.993 33.1812 98.5889 38.6636 98.5889 45.4266C98.5889 52.1895 103.993 57.672 110.659 57.672Z" fill="#A0616A"/>
<path d="M116.694 65.7653C119.295 67.3337 120.85 70.2154 121.743 73.1477C123.396 78.5766 124.392 84.1896 124.707 89.8626L125.65 106.847L137.331 143.011C127.207 151.701 89.1544 144.986 89.1544 144.986C89.1544 144.986 87.9863 144.591 89.1544 143.406C90.3225 142.22 91.4597 143.27 90.2916 142.085C89.1235 140.9 89.9287 142.221 90.3181 141.035C90.7075 139.85 90.3181 140.64 89.9287 140.245C89.5394 139.85 92.943 136.295 92.943 136.295L89.8281 115.537L85.9344 73.6656C90.6069 67.7404 100.004 64.2475 100.004 64.2475L102.432 59.8137L114.572 60.799L116.694 65.7653Z" fill="#3F3D56"/>
<path d="M120.609 38.9208C121.547 39.6306 122.242 40.6211 122.596 41.7528C122.733 39.9034 122.741 38.0467 122.622 36.1961C122.48 34.8957 121.578 34.6032 120.533 34.2642C119.589 33.958 118.522 33.6121 118.235 32.3497C114.44 28.6051 107.835 28.7939 103.315 30.1001C100.828 30.8189 99.3967 31.7423 99.2686 32.2833L99.2421 32.3947L99.1411 32.4459C97.2238 33.4185 96.8506 36.4896 96.8753 38.8946C96.922 43.4258 98.4641 48.5721 99.3329 48.9902C99.3789 49.0123 99.3905 49.0037 99.4104 48.9868C100.719 47.9262 102.315 49.0674 103.016 49.6878C103.43 46.8715 104.762 44.2772 106.799 42.319C108.837 40.3609 111.462 39.1519 114.257 38.8852C115.169 38.7957 116.074 38.6417 116.966 38.4243C117.418 38.3057 117.883 38.2438 118.35 38.2401C119.154 38.2277 119.942 38.4652 120.609 38.9208Z" fill="#2F2E41"/>
<path d="M195.54 149.38L218.759 125.459L224.877 106.328L215.032 102.288C210.156 107.279 205.136 122.556 205.136 122.556L189.288 144.134C189.162 144.182 189.035 144.232 188.911 144.292C188.182 144.641 187.553 145.176 187.087 145.844C186.62 146.512 186.331 147.29 186.248 148.105C186.165 148.919 186.29 149.741 186.612 150.492C186.933 151.242 187.44 151.896 188.084 152.39C188.727 152.884 189.486 153.201 190.285 153.311C191.085 153.421 191.899 153.319 192.648 153.016C193.398 152.714 194.058 152.22 194.565 151.583C195.071 150.946 195.407 150.187 195.54 149.38Z" fill="#FFB8B8"/>
<path d="M212.347 104.477L224.796 108.131L224.843 108.121C229.419 107.22 233.039 99.5049 235.269 93.1915C236.003 91.1091 235.93 88.8217 235.066 86.7917C234.201 84.7618 232.608 83.1407 230.61 82.2562C229.132 81.6138 227.506 81.4037 225.917 81.6496C224.327 81.8956 222.837 82.5877 221.614 83.6478L215.407 89.0703L212.347 104.477Z" fill="#FF6200"/>
<path d="M201.696 266.683L195 266.683L191.815 240.484L201.697 240.484L201.696 266.683Z" fill="#FFB8B8"/>
<path d="M203.404 264.466L201.519 264.465L194.162 261.43L190.218 264.465H190.218C187.989 264.465 185.852 265.363 184.276 266.962C182.701 268.561 181.815 270.729 181.815 272.989V273.266L203.403 273.267L203.404 264.466Z" fill="#2F2E41"/>
<path d="M231.404 266.683L224.708 266.683L221.523 240.484L231.405 240.484L231.404 266.683Z" fill="#FFB8B8"/>
<path d="M233.112 264.466L231.227 264.465L223.87 261.43L219.926 264.465H219.926C217.697 264.465 215.56 265.363 213.984 266.962C212.408 268.561 211.523 270.729 211.523 272.989V273.266L233.111 273.267L233.112 264.466Z" fill="#2F2E41"/>
<path d="M241.612 153.835C241.612 153.835 242.394 163.352 240.44 172.473C238.485 181.594 238.485 207.282 238.485 207.282L234.185 257.338L221.286 256.148L217.768 172.473L205.259 200.629L206.432 204.595L204.87 205.586C204.87 205.586 206.041 213.319 205.259 213.319C204.478 213.319 202.523 214.509 202.523 214.509L204.087 255.355L190.796 254.958L186.106 197.457L191.187 164.542L191.578 158.197L193.337 158.27L194.233 155.619L195.878 151.059L241.612 153.835Z" fill="#2F2E41"/>
<path d="M242.288 155.834L242.358 155.735C246.079 150.45 240.483 137.751 239.639 135.91L243.193 134.74L242.393 127.837L242.014 124.759L244.731 122.003L244.738 121.934L246.302 108.054L248.575 98.8356C249.432 95.3506 249.359 91.6971 248.364 88.2501C247.369 84.8032 245.487 81.687 242.913 79.2214L237.658 74.1949L231.272 64.6083H220.973L217.442 71.375C214.018 72.1777 210.981 74.1735 208.858 77.0146C206.736 79.8557 205.663 83.3622 205.827 86.9231L206.628 104.67L203.495 126.767L203.493 130.766L199.967 134.741L200.737 138.647L198.053 139.813L196.869 145.422C196.378 146.079 193.142 150.457 193.142 151.654C193.142 151.834 193.272 152.007 193.553 152.2C195.759 153.715 207.95 156.804 213.345 154.614C219.093 152.282 241.939 155.78 242.169 155.815L242.288 155.834Z" fill="#FF6200"/>
<path d="M224.792 61.5136C232.325 61.5136 238.431 55.3184 238.431 47.6764C238.431 40.0343 232.325 33.8391 224.792 33.8391C217.259 33.8391 211.152 40.0343 211.152 47.6764C211.152 55.3184 217.259 61.5136 224.792 61.5136Z" fill="#FFB8B8"/>
<path d="M223.485 61.7376C225.597 61.7157 227.704 61.5108 229.782 61.1251C231.839 60.6443 236.378 57.0838 237.615 54.9804C238.534 53.4175 239.086 51.0002 239.387 49.2476C239.793 46.9282 239.715 44.548 239.157 42.2613C238.599 39.9745 237.574 37.8321 236.148 35.9728C235.598 35.1939 234.851 34.5802 233.986 34.1966C233.909 34.1686 233.83 34.144 233.751 34.1233C232.497 33.8234 231.36 33.15 230.485 32.1896C230.316 31.9952 230.132 31.8134 229.937 31.6457C228.956 30.849 227.803 30.2992 226.573 30.041C224.585 29.5568 221.742 30.1636 218.122 31.8463C216.304 32.6917 214.285 32.4559 212.729 32.1559C212.642 32.1412 212.553 32.1499 212.47 32.1811C212.387 32.2124 212.314 32.2651 212.257 32.3341C211.615 32.9782 210.756 33.3518 209.853 33.3799C209.301 33.419 208.741 34.2109 208.065 35.2422C207.912 35.4763 207.733 35.7496 207.603 35.9163L207.577 35.6032L207.273 35.9612C206.796 36.5239 206.466 37.2001 206.315 37.9268C206.165 38.6535 206.198 39.407 206.411 40.1173C206.625 40.8276 207.012 41.4715 207.537 41.9891C208.062 42.5066 208.708 42.8809 209.414 43.0773C209.974 43.2128 210.546 43.29 211.121 43.3077C211.47 43.3303 211.831 43.3538 212.178 43.4055C213.291 43.6065 214.334 44.0971 215.205 44.8291C216.076 45.5612 216.744 46.5098 217.146 47.5824C217.241 47.8302 217.39 48.0527 217.583 48.2325C217.776 48.4124 218.007 48.5449 218.259 48.6197C218.51 48.6946 218.775 48.7098 219.033 48.6642C219.292 48.6187 219.536 48.5135 219.748 48.3569C220.1 48.0635 220.517 47.8609 220.963 47.7664C221.409 47.6718 221.871 47.6881 222.31 47.8139C222.691 48.0162 222.992 48.3453 223.163 48.7461C223.369 49.1922 223.702 49.5659 224.118 49.8194C225.538 50.5157 225.718 53.7605 225.283 56.4806C224.864 59.1026 223.953 61.0153 223.068 61.1319C222.386 61.2216 222.309 61.2729 222.263 61.3968L222.221 61.5078L222.301 61.6084C222.682 61.7374 223.086 61.7815 223.485 61.7376Z" fill="#2F2E41"/>
<path d="M212.169 105.957L205.613 97.4821C198.935 99.3477 187.086 110.063 187.086 110.063L162.751 120.776C161.939 120.638 161.105 120.719 160.333 121.011C159.562 121.304 158.88 121.797 158.356 122.442C157.832 123.087 157.485 123.86 157.35 124.684C157.214 125.508 157.295 126.354 157.584 127.137C157.873 127.919 158.36 128.61 158.997 129.141C159.633 129.671 160.396 130.023 161.208 130.159C162.021 130.296 162.854 130.213 163.625 129.918C164.396 129.624 165.077 129.129 165.599 128.483L197.477 119.46L212.169 105.957Z" fill="#FFB8B8"/>
<path d="M210.598 107.894L220.942 96.1954L221.517 87.9058C221.624 86.278 221.28 84.6523 220.524 83.2125C219.768 81.7726 218.63 80.5759 217.239 79.7577C215.345 78.6615 213.112 78.3355 210.991 78.8456C208.87 79.3557 207.019 80.6639 205.812 82.5057C202.157 88.0944 198.225 95.6505 200.248 99.9108L200.269 99.954L210.598 107.894Z" fill="#FF6200"/>
<path d="M115.253 151.867L88.3668 137.897C86.4544 136.904 85.8209 134.268 86.9547 132.022L104.485 97.2969C105.619 95.051 108.097 94.0322 110.009 95.0258L136.896 108.995C138.808 109.989 139.442 112.624 138.308 114.87L120.777 149.596C119.644 151.842 117.165 152.861 115.253 151.867Z" fill="#E6E6E6"/>
<path d="M110.659 145.445L92.3923 135.954C90.6012 135.023 90.0078 132.555 91.0697 130.452L105.634 101.602C106.695 99.4989 109.017 98.5449 110.808 99.4755L132.87 110.939C134.661 111.869 135.255 114.337 134.193 116.441L126.281 132.113C121.551 141.483 118.637 149.59 110.659 145.445Z" fill="white"/>
<path d="M119.691 129.69L103.511 121.284C103.313 121.141 103.173 120.93 103.115 120.691C103.058 120.452 103.087 120.199 103.198 119.98C103.308 119.761 103.493 119.589 103.718 119.496C103.943 119.404 104.194 119.397 104.424 119.476L120.603 127.882C120.801 128.025 120.942 128.236 120.999 128.475C121.057 128.715 121.028 128.967 120.917 129.186C120.806 129.406 120.621 129.577 120.396 129.67C120.171 129.762 119.921 129.77 119.691 129.69Z" fill="#FF6200"/>
<path d="M105.4 126.775L101.708 124.856C101.51 124.713 101.369 124.503 101.312 124.263C101.254 124.024 101.284 123.772 101.394 123.552C101.505 123.333 101.69 123.161 101.915 123.069C102.14 122.976 102.391 122.969 102.621 123.048L106.313 124.967C106.511 125.11 106.651 125.32 106.709 125.559C106.766 125.799 106.737 126.051 106.626 126.271C106.516 126.49 106.331 126.662 106.106 126.754C105.881 126.847 105.63 126.854 105.4 126.775Z" fill="#FF6200"/>
<path d="M110.136 133.745L99.9044 128.429C99.7066 128.286 99.5661 128.075 99.5085 127.836C99.451 127.596 99.4803 127.344 99.591 127.124C99.7017 126.905 99.8865 126.734 100.112 126.641C100.337 126.548 100.587 126.541 100.817 126.62L111.049 131.937C111.247 132.08 111.387 132.29 111.445 132.529C111.503 132.769 111.473 133.021 111.363 133.241C111.252 133.46 111.067 133.632 110.842 133.724C110.617 133.817 110.366 133.824 110.136 133.745Z" fill="#FF6200"/>
<path d="M126.093 117.008L109.914 108.601C109.716 108.458 109.575 108.248 109.518 108.008C109.46 107.769 109.49 107.516 109.6 107.297C109.711 107.078 109.896 106.906 110.121 106.814C110.346 106.721 110.597 106.714 110.827 106.793L127.006 115.199C127.204 115.342 127.344 115.553 127.402 115.792C127.459 116.032 127.43 116.284 127.319 116.504C127.209 116.723 127.024 116.894 126.799 116.987C126.574 117.08 126.323 117.087 126.093 117.008Z" fill="#FF6200"/>
<path d="M111.803 114.092L108.11 112.173C107.913 112.03 107.772 111.82 107.714 111.581C107.657 111.341 107.686 111.089 107.797 110.869C107.908 110.65 108.092 110.478 108.318 110.386C108.543 110.293 108.793 110.286 109.023 110.365L112.715 112.284C112.913 112.427 113.054 112.637 113.111 112.877C113.169 113.116 113.14 113.368 113.029 113.588C112.918 113.807 112.733 113.979 112.508 114.071C112.283 114.164 112.033 114.171 111.803 114.092Z" fill="#FF6200"/>
<path d="M116.539 121.062L106.307 115.746C106.109 115.603 105.969 115.392 105.911 115.153C105.854 114.913 105.883 114.661 105.994 114.442C106.104 114.222 106.289 114.051 106.514 113.958C106.739 113.866 106.99 113.858 107.22 113.938L117.452 119.254C117.65 119.397 117.79 119.607 117.848 119.847C117.905 120.086 117.876 120.339 117.765 120.558C117.654 120.777 117.47 120.949 117.244 121.041C117.019 121.134 116.769 121.141 116.539 121.062Z" fill="#FF6200"/>
<path d="M92.9735 121.635L86.8995 98.6947L103.131 95.5776L102.258 111.324L123.584 133.601C124.713 133.555 125.831 133.842 126.802 134.429C127.773 135.015 128.555 135.876 129.052 136.905C129.549 137.935 129.74 139.089 129.601 140.227C129.463 141.364 129.001 142.437 128.273 143.313C127.544 144.189 126.58 144.831 125.498 145.161C124.416 145.491 123.262 145.494 122.178 145.171C121.094 144.847 120.126 144.211 119.393 143.339C118.659 142.467 118.192 141.397 118.047 140.26L92.9735 121.635Z" fill="#A0616A"/>
<path d="M85.2386 72.9739C79.7292 77.3865 86.8006 102.068 86.8006 102.068C87.8954 100.849 89.1677 118.865 90.5059 118.251C94.3092 116.508 101.28 110.496 103.968 110.986C105.505 111.266 103.894 99.0697 103.894 99.0697C103.894 99.0697 103.598 92.0765 103.042 83.0865C102.931 80.5419 102.187 78.0672 100.88 75.8927C99.5726 73.7181 97.7443 71.9145 95.5651 70.6496C95.5651 70.6496 90.7481 68.5614 85.2386 72.9739Z" fill="#3F3D56"/>
<path d="M176.911 172.553L162.239 165.524C161.925 165.375 161.649 165.155 161.431 164.882C161.213 164.608 161.058 164.288 160.98 163.946C160.9 163.611 160.896 163.262 160.969 162.926C161.041 162.589 161.188 162.273 161.397 162.002C165.647 156.492 168.566 150.048 169.918 143.187C170.02 142.662 170.299 142.189 170.707 141.848C171.114 141.508 171.626 141.322 172.153 141.321C179.636 141.347 185.228 144.119 188.775 149.559C188.962 149.842 189.086 150.163 189.138 150.499C189.19 150.836 189.169 151.18 189.077 151.507C187.023 158.687 183.899 165.506 179.812 171.726C179.509 172.197 179.047 172.539 178.514 172.691C177.981 172.843 177.411 172.794 176.911 172.553Z" fill="#E6E6E6"/>
<path d="M181.227 162.695L170.009 157.321C169.73 157.187 169.514 156.946 169.41 156.651C169.306 156.357 169.322 156.032 169.453 155.749C169.585 155.466 169.822 155.247 170.113 155.142C170.403 155.036 170.723 155.052 171.003 155.185L182.221 160.559C182.359 160.626 182.483 160.719 182.586 160.834C182.688 160.948 182.768 161.083 182.819 161.229C182.871 161.375 182.894 161.529 182.886 161.684C182.879 161.839 182.841 161.991 182.776 162.131C182.711 162.271 182.619 162.397 182.506 162.501C182.393 162.606 182.26 162.686 182.116 162.738C181.973 162.791 181.82 162.814 181.667 162.806C181.515 162.799 181.365 162.761 181.227 162.695Z" fill="white"/>
<path d="M182.97 158.951L171.751 153.576C171.472 153.443 171.257 153.202 171.153 152.907C171.049 152.613 171.064 152.288 171.196 152.005C171.328 151.722 171.565 151.503 171.856 151.398C172.146 151.292 172.466 151.308 172.745 151.441L183.963 156.815C184.242 156.949 184.458 157.19 184.562 157.485C184.666 157.779 184.651 158.104 184.519 158.387C184.387 158.67 184.15 158.889 183.859 158.994C183.569 159.1 183.249 159.084 182.97 158.951Z" fill="white"/>
<path d="M167.98 41.4189L166.935 41.5349C162.279 22.9732 153.255 10.1139 140.836 4.34681C125.049 -2.98413 105.527 1.93873 85.8676 18.2088C66.1079 34.5618 48.6153 60.3926 36.6126 90.944L35.5994 90.4736C47.6548 59.7888 65.2371 33.8332 85.1076 17.3892C105.078 0.862069 124.998 -4.09689 141.198 3.426C153.973 9.3583 163.234 22.4961 167.98 41.4189Z" fill="black"/>
<path d="M52.7729 65.5931C50.0421 71.4294 47.4446 77.4758 45.0526 83.5642C31.2876 118.601 24.3122 154.382 24.8822 187.043L23.8064 186.926C23.2358 154.145 30.2313 118.24 44.0394 83.0938C46.4382 76.9882 49.0431 70.9247 51.7818 65.072L52.7729 65.5931Z" fill="black"/>
<path d="M52.2566 89.6673C49.5257 95.5036 46.9282 101.55 44.5362 107.638C30.7713 142.675 23.7958 178.457 24.3658 211.117L23.29 211C22.7194 178.219 29.715 142.314 43.523 107.168C45.9219 101.062 48.5267 94.9989 51.2655 89.1461L52.2566 89.6673Z" fill="black"/>
<path d="M23.3418 98.4227C24.531 96.6093 23.8271 94.0134 21.7696 92.6246C19.712 91.2359 17.08 91.5802 15.8907 93.3936C14.7015 95.207 15.4054 97.8029 17.4629 99.1917C19.5205 100.58 22.1525 100.236 23.3418 98.4227Z" fill="#CCCCCC"/>
<path d="M276.577 163.911C277.766 162.098 277.062 159.502 275.004 158.113C272.947 156.725 270.315 157.069 269.126 158.882C267.936 160.696 268.64 163.292 270.698 164.68C272.755 166.069 275.387 165.725 276.577 163.911Z" fill="#CCCCCC"/>
</g>
<defs>
<clipPath id="clip0_30_309">
<rect width="333" height="274" fill="white"/>
</clipPath>
</defs>
</svg>
